<svg width="120" height="171" viewBox="0 0 120 171" fill="none" xmlns="http://www.w3.org/2000/svg">
<rect width="120" height="171" fill="#1E1E1E"/>
<rect x="88.868" y="74" width="33.6866" height="33.6866" rx="2.47696" transform="rotate(22.457 88.868 74)" fill="#FFEBC5"/>
<rect x="81.0901" y="118" width="38.582" height="38.582" rx="2.83692" transform="rotate(36.7602 81.0901 118)" fill="#FFEBC5"/>
<circle cx="98" cy="96" r="2.97235" transform="rotate(-30.0483 98 96)" fill="#3A322E"/>
<circle cx="84.3663" cy="145.11" r="3.4043" transform="rotate(-15.7451 84.3663 145.11)" fill="#3A322E"/>
<circle cx="85.1893" cy="160.426" r="3.4043" transform="rotate(-15.7451 85.1893 160.426)" fill="#3A322E"/>
<circle cx="81.5816" cy="130.429" r="3.4043" transform="rotate(-15.7451 81.5816 130.429)" fill="#3A322E"/>
<circle cx="68.5233" cy="147.861" r="3.4043" transform="rotate(-15.7451 68.5233 147.861)" fill="#3A322E"/>
<circle cx="98.9365" cy="143.296" r="3.4043" transform="rotate(-15.7451 98.9365 143.296)" fill="#3A322E"/>
<path d="M0.153127 28.2291L39.3603 0.537983L111.656 68.2311L38.9592 119.575L0.153127 28.2291Z" fill="#3A322E"/>
</svg>
